<svg xmlns="http://www.w3.org/2000/svg" width="12cm" height="12cm" viewBox="0 0 340.16 340.16">
  <defs>
    <style>
      .cls-1 {
        fill: #242120;
      }
    </style>
  </defs>
  <g id="Capa_2" data-name="Capa 2">
    <g>
      <g>
        <path class="cls-1" d="M41,172.41A5.39,5.39,0,0,1,44.61,171l6.75-.4.18,2.93-6.42.39a3,3,0,0,0-2.1.84,2.55,2.55,0,0,0-.65,2,2.6,2.6,0,0,0,.94,2,3.34,3.34,0,0,0,2.39.61l6.17-.37.17,3-11.61.7-.18-3,2.33-.14a3.75,3.75,0,0,1-1.93-1.41,4.5,4.5,0,0,1-.8-2.4A4.14,4.14,0,0,1,41,172.41Z"/>
        <path class="cls-1" d="M42.41,143l11.48,1.85-.47,2.92-2.32-.37a3.7,3.7,0,0,1,1.57,1.79,4.62,4.62,0,0,1,.27,2.52,4.15,4.15,0,0,1-1.82,3,5.36,5.36,0,0,1-3.84.59l-6.68-1.08.47-2.9,6.35,1a3,3,0,0,0,2.23-.36,2.52,2.52,0,0,0,1.07-1.78,2.68,2.68,0,0,0-.49-2.15,3.39,3.39,0,0,0-2.2-1.12l-6.09-1Z"/>
        <path class="cls-1" d="M51.07,117.56a4.87,4.87,0,0,1,2.6-.94A8,8,0,0,1,59.58,119a4.86,4.86,0,0,1,1.25,2.47,5,5,0,0,1-.32,2.73,4.41,4.41,0,0,1-1.58,2.07,3.88,3.88,0,0,1-2.29.68l2.26.9-1.09,2.75-14.44-5.74,1.09-2.75,5.88,2.33a3.78,3.78,0,0,1-1.2-2.06,4.47,4.47,0,0,1,.29-2.59A5.06,5.06,0,0,1,51.07,117.56Zm.45,6.41a3.43,3.43,0,0,0,2,1.72,3.35,3.35,0,0,0,2.59.09,3.17,3.17,0,0,0,1.66-4.12,3.42,3.42,0,0,0-2-1.69,3.46,3.46,0,0,0-2.61-.13,2.85,2.85,0,0,0-1.66,1.73A3,3,0,0,0,51.52,124Z"/>
        <path class="cls-1" d="M63.91,94.68a3.81,3.81,0,0,1,2.38-.17l-2-1.36L66,90.72l9.59,6.59-1.67,2.43-2-1.38a3.81,3.81,0,0,1,.71,2.29,4.36,4.36,0,0,1-.85,2.47,4.9,4.9,0,0,1-2.09,1.78,4.76,4.76,0,0,1-2.74.34,7.06,7.06,0,0,1-3-1.25,7.34,7.34,0,0,1-2.25-2.35A4.89,4.89,0,0,1,61,99a5,5,0,0,1,.91-2.58A4.52,4.52,0,0,1,63.91,94.68Zm.14,4.74a4.06,4.06,0,0,0,4.07,2.8,3.18,3.18,0,0,0,2.5-3.67,3.39,3.39,0,0,0-1.52-2.11,3.44,3.44,0,0,0-2.53-.68,3.16,3.16,0,0,0-2.52,3.66Z"/>
        <path class="cls-1" d="M81,74.86a4.63,4.63,0,0,1,1.28-2.12L84.46,75l-.62.6c-1.56,1.5-1.63,3-.23,4.43l3.89,4-2.13,2.06-8.08-8.36,2.13-2.06L81,77.32A5,5,0,0,1,81,74.86Z"/>
        <path class="cls-1" d="M103,58.77a5.33,5.33,0,0,1,3.38,1.77l-2.63,1.7a2.42,2.42,0,0,0-1.51-.76,2.58,2.58,0,0,0-1.72.48,2.53,2.53,0,0,0-1.18,1.8A4.53,4.53,0,0,0,102.16,68a2.53,2.53,0,0,0,2.12-.34,2.66,2.66,0,0,0,1.14-1.37,2.44,2.44,0,0,0-.07-1.7l2.62-1.7a5.33,5.33,0,0,1,.23,3.81,5.73,5.73,0,0,1-2.49,3.06,6.22,6.22,0,0,1-2.93,1,5.09,5.09,0,0,1-2.85-.62A6.53,6.53,0,0,1,97.59,68a6.6,6.6,0,0,1-1.11-3.07,5,5,0,0,1,.6-2.86,6.28,6.28,0,0,1,2.15-2.24A5.78,5.78,0,0,1,103,58.77Z"/>
        <path class="cls-1" d="M128.91,46.82a5.36,5.36,0,0,1,2.43,3.06l2.38,6.33-2.75,1-2.27-6a3.06,3.06,0,0,0-1.42-1.77,2.55,2.55,0,0,0-2.1,0,2.62,2.62,0,0,0-1.6,1.48,3.35,3.35,0,0,0,.12,2.47l2.17,5.78-2.77,1-5.47-14.55,2.78-1,2.19,5.84a3.69,3.69,0,0,1,.78-2.26,4.57,4.57,0,0,1,2.06-1.48A4.14,4.14,0,0,1,128.91,46.82Z"/>
        <path class="cls-1" d="M145.54,36.75a2.17,2.17,0,0,1,2.61-.45,1.49,1.49,0,0,1,.69,1.06,1.46,1.46,0,0,1-.3,1.21,1.88,1.88,0,0,1-1.22.68,1.91,1.91,0,0,1-1.38-.22,1.46,1.46,0,0,1-.69-1A1.47,1.47,0,0,1,145.54,36.75Zm3.53,4,2,11.46-2.92.51-2-11.46Z"/>
        <path class="cls-1" d="M171,47.72l3-8.64,3.15,0L172.78,50.7l-3.62,0L165,39l3.17,0Z"/>
        <path class="cls-1" d="M200.21,43.2a3.83,3.83,0,0,1,1,2.16l.55-2.35,2.86.68L202,55l-2.86-.67.56-2.38a3.79,3.79,0,0,1-1.88,1.49,4.37,4.37,0,0,1-2.62.1,5,5,0,0,1-2.41-1.3,4.88,4.88,0,0,1-1.31-2.44,8,8,0,0,1,1.47-6.19A4.8,4.8,0,0,1,195.17,42a5,5,0,0,1,2.74-.08A4.45,4.45,0,0,1,200.21,43.2ZM195.84,45a3.51,3.51,0,0,0-1.39,2.22,3.45,3.45,0,0,0,.25,2.59,2.9,2.9,0,0,0,2,1.38,3,3,0,0,0,2.37-.37,3.45,3.45,0,0,0,1.41-2.19,3.4,3.4,0,0,0-.28-2.6,2.94,2.94,0,0,0-1.94-1.4A2.91,2.91,0,0,0,195.84,45Z"/>
        <path class="cls-1" d="M258.33,68.43l-10.2,11.73-1.11-1,10.2-11.73Z"/>
        <path class="cls-1" d="M268.87,85l-8.69,7.48-1-1.12,8.7-7.47Zm.91-2.74a1,1,0,0,1,.39-.75,1,1,0,0,1,.78-.26,1.05,1.05,0,0,1,.73.38,1.06,1.06,0,0,1-.12,1.51,1.06,1.06,0,0,1-.79.26A1,1,0,0,1,270,83,1,1,0,0,1,269.78,82.22Z"/>
        <path class="cls-1" d="M280.57,102.18a5,5,0,0,1,2.06,2,5.5,5.5,0,0,1,.8,2.8,5.07,5.07,0,0,1-.81,2.71,6.5,6.5,0,0,1-2.32,2.17,6.57,6.57,0,0,1-3,.95,5.08,5.08,0,0,1-2.78-.64,5.43,5.43,0,0,1-2-2,5.22,5.22,0,0,1-.78-2.82,4.39,4.39,0,0,1,.81-2.47l-2.18,1.27-.73-1.26L283,97.06l.73,1.26L278,101.64A4.69,4.69,0,0,1,280.57,102.18Zm.83,6.71a3.91,3.91,0,0,0,.61-2.12,4.34,4.34,0,0,0-.63-2.16,4.15,4.15,0,0,0-1.57-1.57,4,4,0,0,0-2.18-.52,5.48,5.48,0,0,0-4.21,2.45,4.08,4.08,0,0,0-.62,2.14,4.16,4.16,0,0,0,.6,2.15,4.26,4.26,0,0,0,1.57,1.61,4,4,0,0,0,2.17.5,5.3,5.3,0,0,0,2.41-.76A5.15,5.15,0,0,0,281.4,108.89Z"/>
        <path class="cls-1" d="M289.33,136.67l-2.91-9.06a4.67,4.67,0,0,0-1.93,1.28,3.69,3.69,0,0,0-.87,1.85,4.28,4.28,0,0,0,.17,2.06,4,4,0,0,0,1.39,2.08,3.25,3.25,0,0,0,2.18.66l.47,1.48a5,5,0,0,1-3.16-.87,5.5,5.5,0,0,1-2.06-3,5.77,5.77,0,0,1-.2-3,5.12,5.12,0,0,1,1.35-2.54,6.38,6.38,0,0,1,2.75-1.64,6.58,6.58,0,0,1,3.19-.28,4.93,4.93,0,0,1,2.57,1.27,5.81,5.81,0,0,1,1.57,2.56,5.58,5.58,0,0,1,.2,3,4.93,4.93,0,0,1-1.25,2.39,5.56,5.56,0,0,1-2.35,1.45C290,136.51,289.59,136.62,289.33,136.67Zm2.62-2.9a3.49,3.49,0,0,0,.85-1.81,4.4,4.4,0,0,0-.17-2.06,4.05,4.05,0,0,0-1.86-2.34,4.18,4.18,0,0,0-3.21-.31l2.47,7.67A4.09,4.09,0,0,0,292,133.77Z"/>
        <path class="cls-1" d="M298.65,154.56a4.67,4.67,0,0,1,.87,2.36l-1.52.18-.05-.4a3.67,3.67,0,0,0-1.16-2.44,3.72,3.72,0,0,0-3-.62l-6.36.77-.17-1.46,11.38-1.37.18,1.46-2,.25A3.61,3.61,0,0,1,298.65,154.56Z"/>
        <path class="cls-1" d="M297.26,173.42a5,5,0,0,1,1.9,2.1,5.54,5.54,0,0,1,.51,2.88,5.15,5.15,0,0,1-1,2.75,4.42,4.42,0,0,1-2.05,1.56l2.51.19-.12,1.47-11.43-.88.12-1.47,2.53.2a4.67,4.67,0,0,1-1.8-1.88,5.13,5.13,0,0,1-.55-2.88,5.42,5.42,0,0,1,1-2.73,5,5,0,0,1,2.22-1.79,6.61,6.61,0,0,1,3.16-.46A6.48,6.48,0,0,1,297.26,173.42Zm-1.36,8.67a4.13,4.13,0,0,0,1.74-1.42,4.27,4.27,0,0,0,.73-2.1,4.32,4.32,0,0,0-.38-2.22,3.84,3.84,0,0,0-1.46-1.64,5.27,5.27,0,0,0-2.42-.75,5.18,5.18,0,0,0-2.5.37,3.86,3.86,0,0,0-1.73,1.39,4.41,4.41,0,0,0-.73,2.14,4.29,4.29,0,0,0,.4,2.19,4.11,4.11,0,0,0,1.5,1.66,5.55,5.55,0,0,0,4.85.38Z"/>
        <path class="cls-1" d="M287.29,221.85l-6.49-2.92a2.1,2.1,0,0,0-1.49-.23,2,2,0,0,0-.94,1.12l-.55,1.23-1.15-.52.65-1.43a2.66,2.66,0,0,1,4.09-1.52l6.49,2.91.66-1.45,1.13.51L289,221l2.63,1.18-.61,1.36-2.63-1.18-1.29,2.87-1.13-.5Z"/>
        <path class="cls-1" d="M273.22,248.06l-9.37-6.61.85-1.2,1.65,1.16a3.55,3.55,0,0,1-.45-2.21,5,5,0,0,1,.9-2.25,4.6,4.6,0,0,1,3-2,4.9,4.9,0,0,1,3.76,1.06l5.48,3.86-.84,1.19-5.33-3.77a4,4,0,0,0-2.88-.88,3.31,3.31,0,0,0-2.27,1.51,3.43,3.43,0,0,0-.67,2.77,4.32,4.32,0,0,0,2,2.58l5.09,3.6Z"/>
        <path class="cls-1" d="M253.5,254.12a3.34,3.34,0,0,1,2.72.87l-1.1,1a2.17,2.17,0,0,0-1.74-.52,3.59,3.59,0,0,0-2,1.05,2.83,2.83,0,0,0-1,1.69,1.76,1.76,0,0,0,.46,1.5,1.37,1.37,0,0,0,.94.45,2.63,2.63,0,0,0,1.1-.22,15.74,15.74,0,0,0,1.47-.72,16.26,16.26,0,0,1,2-.93,3.4,3.4,0,0,1,1.67-.19,2.85,2.85,0,0,1,2.31,2.39,3.45,3.45,0,0,1-.27,1.81,5.17,5.17,0,0,1-1.25,1.74,4.54,4.54,0,0,1-2.82,1.35,3.39,3.39,0,0,1-2.64-1.05l1.07-1a2.23,2.23,0,0,0,1.69.65,3.42,3.42,0,0,0,2.83-2.52,1.57,1.57,0,0,0-.38-1.42,1.53,1.53,0,0,0-1.05-.53,2.81,2.81,0,0,0-1.2.2,17.23,17.23,0,0,0-1.57.73,14.93,14.93,0,0,1-1.88.87,3.59,3.59,0,0,1-1.56.19,2.5,2.5,0,0,1-1.5-.81,2.88,2.88,0,0,1-.76-1.55,3.47,3.47,0,0,1,.25-1.8,4.94,4.94,0,0,1,1.23-1.73A5.46,5.46,0,0,1,253.5,254.12Z"/>
        <path class="cls-1" d="M223.45,284.71a5,5,0,0,1-1,2.65,5.52,5.52,0,0,1-2.33,1.75,5.16,5.16,0,0,1-2.9.38,4.45,4.45,0,0,1-2.32-1.13l1,2.33-1.35.56-4.39-10.6,1.36-.56,1,2.35a4.69,4.69,0,0,1,.86-2.46,5.17,5.17,0,0,1,2.32-1.79,5.52,5.52,0,0,1,2.87-.39,5.06,5.06,0,0,1,2.6,1.18,6.48,6.48,0,0,1,1.84,2.6A6.58,6.58,0,0,1,223.45,284.71Zm-8.34,2.71a4.09,4.09,0,0,0,2,.91,4.23,4.23,0,0,0,2.21-.3,4.41,4.41,0,0,0,1.81-1.34,3.94,3.94,0,0,0,.8-2.05,5.75,5.75,0,0,0-1.89-4.56,3.94,3.94,0,0,0-2-.91,4.26,4.26,0,0,0-2.23.32,4.21,4.21,0,0,0-1.78,1.35,4,4,0,0,0-.8,2.08,5,5,0,0,0,.4,2.47A5.09,5.09,0,0,0,215.11,287.42Z"/>
        <path class="cls-1" d="M194.38,296.32a4.74,4.74,0,0,1-2.29,1.06l-.3-1.51.4-.08a3.21,3.21,0,0,0,2.72-4.35l-1.25-6.28,1.44-.29,2.25,11.25-1.45.28-.39-2A3.62,3.62,0,0,1,194.38,296.32Z"/>
        <path class="cls-1" d="M175.47,296.38a5.08,5.08,0,0,1-2,2.06,6.16,6.16,0,0,1-6.37-.29,4.72,4.72,0,0,1-1.79-2.84h1.57a3.27,3.27,0,0,0,1.28,1.94,4.07,4.07,0,0,0,2.43.68,4.12,4.12,0,0,0,2.08-.53,3.69,3.69,0,0,0,1.45-1.57,6.39,6.39,0,0,0,0-5.12,3.67,3.67,0,0,0-1.47-1.57,4.22,4.22,0,0,0-2.08-.51,4.1,4.1,0,0,0-2.42.72,3.21,3.21,0,0,0-1.26,2h-1.58a4.82,4.82,0,0,1,1.77-2.85,5.6,5.6,0,0,1,3.48-1.09,5.76,5.76,0,0,1,2.89.71,5.08,5.08,0,0,1,2,2.05,6.44,6.44,0,0,1,.73,3.11A6.54,6.54,0,0,1,175.47,296.38Z"/>
        <path class="cls-1" d="M140.61,295.34a3.91,3.91,0,0,1-1.27-2,5.71,5.71,0,0,1,0-2.8l1.34-6.59,1.42.29-1.31,6.42a4.05,4.05,0,0,0,.35,3,3.36,3.36,0,0,0,2.3,1.47,3.5,3.5,0,0,0,2.81-.5,4.38,4.38,0,0,0,1.58-2.83L149,285.7l1.45.29-3.1,15.23-1.44-.29,1.2-5.91a3.77,3.77,0,0,1-1.89,1.24,5.32,5.32,0,0,1-4.64-.92Z"/>
        <path class="cls-1" d="M120.71,292a1,1,0,0,1,0,.84,1,1,0,0,1-.58.59,1,1,0,0,1-.81,0,1.06,1.06,0,0,1-.59-.57,1,1,0,0,1,0-.83,1.1,1.1,0,0,1,.58-.6,1.06,1.06,0,0,1,1.4.57Zm-.45-2.86,4.32-10.62,1.36.55-4.31,10.63Z"/>
        <path class="cls-1" d="M106.34,270.73l-8.6,6.46-1.32-.82,10-7.29,1.41.88-2.18,12.16-1.34-.83Z"/>
        <path class="cls-1" d="M89.45,256.81a5.16,5.16,0,0,1,0,2.89,6.28,6.28,0,0,1-1.63,2.76,6.21,6.21,0,0,1-2.71,1.72,5.24,5.24,0,0,1-2.91.05A6.26,6.26,0,0,1,78,260.17a5.23,5.23,0,0,1,0-2.91,6.28,6.28,0,0,1,1.63-2.76,6.16,6.16,0,0,1,2.71-1.71,5.22,5.22,0,0,1,2.93,0,6.11,6.11,0,0,1,2.62,1.53A5.76,5.76,0,0,1,89.45,256.81Zm-4.34-2.71a4,4,0,0,0-2.21,0,5,5,0,0,0-2.2,1.42,5.09,5.09,0,0,0-1.35,2.24,3.82,3.82,0,0,0,0,2.2,4.34,4.34,0,0,0,1.15,1.83,4.44,4.44,0,0,0,1.87,1.09,3.81,3.81,0,0,0,2.19-.05,5.27,5.27,0,0,0,2.19-1.43,5.14,5.14,0,0,0,1.35-2.24,3.76,3.76,0,0,0,0-2.18A4.25,4.25,0,0,0,87,255.19,4.31,4.31,0,0,0,85.11,254.1Z"/>
        <path class="cls-1" d="M73.14,238.68a3.31,3.31,0,0,1-1.27,2.55L71,240a2.18,2.18,0,0,0,.78-1.63,3.67,3.67,0,0,0-.73-2.14A2.88,2.88,0,0,0,69.54,235a1.76,1.76,0,0,0-1.55.23,1.33,1.33,0,0,0-.58.86,2.67,2.67,0,0,0,0,1.12c.1.4.26.92.49,1.56a16,16,0,0,1,.62,2.1,3.67,3.67,0,0,1-.06,1.68A2.7,2.7,0,0,1,67.34,244a2.65,2.65,0,0,1-1.56.46,3.47,3.47,0,0,1-1.75-.54,5.28,5.28,0,0,1-1.52-1.5,4.51,4.51,0,0,1-.91-3A3.4,3.4,0,0,1,63,237l.83,1.22a2.2,2.2,0,0,0-.91,1.56A3.45,3.45,0,0,0,65,242.93a1.61,1.61,0,0,0,1.47-.16,1.55,1.55,0,0,0,.68-1,2.8,2.8,0,0,0,0-1.22c-.1-.43-.26-1-.48-1.66a14.71,14.71,0,0,1-.57-2,3.33,3.33,0,0,1,.05-1.57,2.49,2.49,0,0,1,1-1.36,2.84,2.84,0,0,1,1.64-.51,3.47,3.47,0,0,1,1.74.52,4.85,4.85,0,0,1,1.52,1.48A5.31,5.31,0,0,1,73.14,238.68Z"/>
      </g>
      <polygon class="cls-1" points="94.33 131.98 132.37 132.28 132.37 95.6 94.33 131.98"/>
      <path class="cls-1" d="M231.82,174V234.6H209.69V174c0-13.93-5.74-24.38-22.75-24.38-14.13,0-32.37,10.45-32.57,35.86V234.6H132.24V132.15h22.13v18c7.58-11.47,19.87-19.46,34.83-19.46C223.62,130.72,231.82,153.26,231.82,174Z"/>
    </g>
  </g>
</svg>
