<svg xmlns="http://www.w3.org/2000/svg" width="12cm" height="12cm" viewBox="0 0 340.16 340.16">
  <defs>
    <style>
      .cls-1 {
        fill: #242120;
      }

      .cls-2 {
        fill: #4ec5ff;
      }
    </style>
  </defs>
  <g id="Capa_2" data-name="Capa 2">
    <g>
      <g>
        <path class="cls-1" d="M41.29,173.86a5.37,5.37,0,0,1,3.64-1.42l6.75-.4.18,2.93-6.42.39a3,3,0,0,0-2.1.84,2.55,2.55,0,0,0-.65,2,2.6,2.6,0,0,0,.94,2,3.34,3.34,0,0,0,2.39.61l6.17-.37.17,3-11.61.7-.18-3L42.9,181A3.71,3.71,0,0,1,41,179.55a4.59,4.59,0,0,1-.81-2.4A4.14,4.14,0,0,1,41.29,173.86Z"/>
        <path class="cls-1" d="M42.73,144.48l11.48,1.85-.47,2.92-2.32-.37A3.7,3.7,0,0,1,53,150.67a4.53,4.53,0,0,1,.26,2.52,4.1,4.1,0,0,1-1.81,3,5.31,5.31,0,0,1-3.84.6l-6.68-1.08.47-2.9,6.34,1a3,3,0,0,0,2.24-.36A2.52,2.52,0,0,0,51,151.64a2.66,2.66,0,0,0-.49-2.14,3.39,3.39,0,0,0-2.2-1.12l-6.1-1Z"/>
        <path class="cls-1" d="M51.39,119a4.79,4.79,0,0,1,2.6-.94,8,8,0,0,1,5.91,2.35,4.86,4.86,0,0,1,1.25,2.47,5,5,0,0,1-.32,2.72,4.39,4.39,0,0,1-1.58,2.08,3.9,3.9,0,0,1-2.29.68l2.26.9L58.13,132l-14.44-5.74,1.09-2.75,5.87,2.33a3.82,3.82,0,0,1-1.19-2.06,4.39,4.39,0,0,1,.29-2.59A5,5,0,0,1,51.39,119Zm.45,6.41a3.4,3.4,0,0,0,2,1.72,3.35,3.35,0,0,0,2.59.09,3.17,3.17,0,0,0,1.66-4.12,3.42,3.42,0,0,0-2-1.69,3.47,3.47,0,0,0-2.61-.13,3.17,3.17,0,0,0-1.63,4.13Z"/>
        <path class="cls-1" d="M64.23,96.13A3.81,3.81,0,0,1,66.61,96l-2-1.36,1.67-2.43,9.59,6.59-1.67,2.42-2-1.37a3.81,3.81,0,0,1,.71,2.29,4.44,4.44,0,0,1-.85,2.47A5,5,0,0,1,70,106.35a4.76,4.76,0,0,1-2.74.34,7,7,0,0,1-3-1.25A7.34,7.34,0,0,1,62,103.09a4.89,4.89,0,0,1-.66-2.69,5,5,0,0,1,.91-2.58A4.46,4.46,0,0,1,64.23,96.13Zm.13,4.74A3.51,3.51,0,0,0,65.93,103a3.46,3.46,0,0,0,2.51.71,3.18,3.18,0,0,0,2.5-3.68,3.4,3.4,0,0,0-1.52-2.1,3.44,3.44,0,0,0-2.53-.68,3.18,3.18,0,0,0-2.53,3.66Z"/>
        <path class="cls-1" d="M81.3,76.31a4.55,4.55,0,0,1,1.28-2.12l2.2,2.28-.62.59q-2.34,2.26-.24,4.44l3.9,4-2.13,2.06-8.08-8.36,2.13-2.06,1.54,1.6A5,5,0,0,1,81.3,76.31Z"/>
        <path class="cls-1" d="M103.36,60.22A5.33,5.33,0,0,1,106.74,62l-2.63,1.7a2.42,2.42,0,0,0-1.51-.76,2.57,2.57,0,0,0-1.72.48,2.53,2.53,0,0,0-1.18,1.8,4.55,4.55,0,0,0,2.78,4.28,2.53,2.53,0,0,0,2.12-.34,2.71,2.71,0,0,0,1.14-1.37,2.44,2.44,0,0,0-.08-1.7l2.63-1.7a5.33,5.33,0,0,1,.23,3.81A5.73,5.73,0,0,1,106,71.25a6.22,6.22,0,0,1-2.93,1,5.09,5.09,0,0,1-2.85-.62,7.21,7.21,0,0,1-3.45-5.33,5,5,0,0,1,.6-2.86,6.28,6.28,0,0,1,2.15-2.24A5.78,5.78,0,0,1,103.36,60.22Z"/>
        <path class="cls-1" d="M129.23,48.27a5.33,5.33,0,0,1,2.43,3.06L134,57.66l-2.76,1-2.26-6a3,3,0,0,0-1.42-1.77,2.55,2.55,0,0,0-2.1,0,2.62,2.62,0,0,0-1.6,1.48,3.35,3.35,0,0,0,.12,2.47l2.17,5.78-2.77,1L118,47.1l2.78-1,2.19,5.84a3.69,3.69,0,0,1,.78-2.26,4.52,4.52,0,0,1,2.06-1.48A4.14,4.14,0,0,1,129.23,48.27Z"/>
        <path class="cls-1" d="M145.86,38.2a2.17,2.17,0,0,1,2.61-.45,1.49,1.49,0,0,1,.69,1.06,1.46,1.46,0,0,1-.3,1.21,2.14,2.14,0,0,1-2.6.46,1.47,1.47,0,0,1-.7-1A1.51,1.51,0,0,1,145.86,38.2Zm3.53,4,2,11.46-2.92.51-2-11.46Z"/>
        <path class="cls-1" d="M171.34,49.17l3-8.64,3.15,0L173.1,52.15l-3.62,0-4.19-11.67,3.17,0Z"/>
        <path class="cls-1" d="M200.52,44.65a3.7,3.7,0,0,1,1,2.16l.56-2.35,2.86.68-2.68,11.32-2.86-.68.56-2.37a3.89,3.89,0,0,1-1.88,1.49,4.37,4.37,0,0,1-2.62.1,5,5,0,0,1-2.41-1.3,4.88,4.88,0,0,1-1.31-2.44,8,8,0,0,1,1.47-6.19,4.75,4.75,0,0,1,2.26-1.59,5.08,5.08,0,0,1,2.74-.09A4.46,4.46,0,0,1,200.52,44.65Zm-4.36,1.84a3.51,3.51,0,0,0-1.39,2.21,3.47,3.47,0,0,0,.25,2.6,2.9,2.9,0,0,0,2,1.38,3,3,0,0,0,2.37-.37,3.45,3.45,0,0,0,1.41-2.19,3.4,3.4,0,0,0-.28-2.6,2.94,2.94,0,0,0-1.94-1.4A2.91,2.91,0,0,0,196.16,46.49Z"/>
        <path class="cls-1" d="M258.65,69.88l-10.2,11.73-1.11-1,10.2-11.73Z"/>
        <path class="cls-1" d="M269.19,86.41l-8.69,7.48-1-1.12,8.69-7.47Zm.91-2.74a1.06,1.06,0,0,1,.38-.75,1,1,0,0,1,.79-.26A1.06,1.06,0,0,1,272,83a1.05,1.05,0,0,1-.11,1.52,1.06,1.06,0,0,1-.79.26,1.06,1.06,0,0,1-1-1.14Z"/>
        <path class="cls-1" d="M280.89,103.63a5.11,5.11,0,0,1,2.06,2,5.39,5.39,0,0,1,.79,2.8,5.06,5.06,0,0,1-.8,2.71,6.5,6.5,0,0,1-2.32,2.17,6.57,6.57,0,0,1-3,1,5.08,5.08,0,0,1-2.78-.64,5.52,5.52,0,0,1-2.05-2,5.21,5.21,0,0,1-.77-2.82,4.46,4.46,0,0,1,.8-2.47l-2.17,1.27-.73-1.26,13.43-7.82.73,1.26-5.72,3.32A4.69,4.69,0,0,1,280.89,103.63Zm.83,6.71a4,4,0,0,0,.61-2.12,4.34,4.34,0,0,0-.63-2.16,4.22,4.22,0,0,0-1.57-1.57A4,4,0,0,0,278,104a5.48,5.48,0,0,0-4.21,2.45,4.08,4.08,0,0,0-.62,2.14,4.24,4.24,0,0,0,.59,2.15,4.36,4.36,0,0,0,1.58,1.61,4,4,0,0,0,2.17.5,5.33,5.33,0,0,0,2.41-.76A5.15,5.15,0,0,0,281.72,110.34Z"/>
        <path class="cls-1" d="M289.65,138.12l-2.91-9.06a4.67,4.67,0,0,0-1.93,1.28,3.69,3.69,0,0,0-.87,1.85,4.4,4.4,0,0,0,.16,2.06,4.1,4.1,0,0,0,1.4,2.08,3.24,3.24,0,0,0,2.17.66l.48,1.48a4.93,4.93,0,0,1-3.16-.87,5.57,5.57,0,0,1-2.07-3,5.76,5.76,0,0,1-.19-3,5.12,5.12,0,0,1,1.35-2.54,6.34,6.34,0,0,1,2.74-1.64,6.51,6.51,0,0,1,3.2-.28,4.93,4.93,0,0,1,2.57,1.27,5.9,5.9,0,0,1,1.57,2.56,5.58,5.58,0,0,1,.2,2.95,5,5,0,0,1-1.25,2.39,5.63,5.63,0,0,1-2.35,1.45C290.28,138,289.91,138.06,289.65,138.12Zm2.62-2.9a3.49,3.49,0,0,0,.85-1.81,4.41,4.41,0,0,0-.18-2.06,4,4,0,0,0-1.85-2.34,4.18,4.18,0,0,0-3.21-.31l2.46,7.67A4.08,4.08,0,0,0,292.27,135.22Z"/>
        <path class="cls-1" d="M299,156a4.67,4.67,0,0,1,.87,2.36l-1.52.18-.05-.4a3.23,3.23,0,0,0-4.13-3.06l-6.36.76-.17-1.46L299,153l.18,1.46-2,.24A3.63,3.63,0,0,1,299,156Z"/>
        <path class="cls-1" d="M297.58,174.87a5,5,0,0,1,1.9,2.1,5.54,5.54,0,0,1,.5,2.88,5.14,5.14,0,0,1-1,2.75,4.39,4.39,0,0,1-2.06,1.56l2.52.19-.12,1.47-11.43-.88.11-1.47,2.54.2a4.54,4.54,0,0,1-1.8-1.88,5,5,0,0,1-.55-2.88,5.33,5.33,0,0,1,.95-2.73,5,5,0,0,1,2.22-1.79,6.59,6.59,0,0,1,3.15-.46A6.49,6.49,0,0,1,297.58,174.87Zm-1.36,8.67a4,4,0,0,0,1.73-1.42,4.18,4.18,0,0,0,.74-2.1,4.42,4.42,0,0,0-.38-2.22,3.84,3.84,0,0,0-1.46-1.64,5.31,5.31,0,0,0-2.42-.75,5.18,5.18,0,0,0-2.5.37,3.86,3.86,0,0,0-1.73,1.39,4.41,4.41,0,0,0-.73,2.14,4.29,4.29,0,0,0,.4,2.19,4.16,4.16,0,0,0,1.49,1.66,5.57,5.57,0,0,0,4.86.38Z"/>
        <path class="cls-1" d="M287.61,223.3l-6.49-2.92a2.11,2.11,0,0,0-1.49-.23,2,2,0,0,0-.94,1.12l-.55,1.23L277,222l.65-1.43a2.67,2.67,0,0,1,4.09-1.53l6.49,2.92.66-1.45L290,221l-.66,1.45,2.63,1.18-.62,1.36-2.62-1.18-1.29,2.87-1.13-.5Z"/>
        <path class="cls-1" d="M273.54,249.51l-9.37-6.61.85-1.2,1.64,1.16a3.54,3.54,0,0,1-.44-2.21,4.84,4.84,0,0,1,.9-2.25,4.6,4.6,0,0,1,3-2,4.91,4.91,0,0,1,3.76,1.06l5.48,3.86-.84,1.19-5.34-3.77a4,4,0,0,0-2.87-.88,3.34,3.34,0,0,0-2.28,1.51,3.46,3.46,0,0,0-.66,2.77,4.32,4.32,0,0,0,2,2.58l5.09,3.6Z"/>
        <path class="cls-1" d="M253.82,255.57a3.34,3.34,0,0,1,2.72.87l-1.1,1a2.17,2.17,0,0,0-1.74-.52,3.56,3.56,0,0,0-2,1.05,2.83,2.83,0,0,0-1,1.69,1.76,1.76,0,0,0,.46,1.5,1.37,1.37,0,0,0,.93.45,2.65,2.65,0,0,0,1.11-.22,15.74,15.74,0,0,0,1.47-.72,15,15,0,0,1,2-.93,3.38,3.38,0,0,1,1.67-.19,2.88,2.88,0,0,1,2.31,2.39,3.4,3.4,0,0,1-.27,1.8,5.11,5.11,0,0,1-1.25,1.75,4.54,4.54,0,0,1-2.82,1.35,3.41,3.41,0,0,1-2.65-1.05l1.08-1a2.21,2.21,0,0,0,1.69.66,3.42,3.42,0,0,0,2.83-2.52,1.57,1.57,0,0,0-.38-1.42,1.53,1.53,0,0,0-1.05-.53,2.73,2.73,0,0,0-1.21.2c-.4.16-.92.4-1.56.73a15,15,0,0,1-1.89.87,3.55,3.55,0,0,1-1.55.19,2.5,2.5,0,0,1-1.5-.81,2.88,2.88,0,0,1-.76-1.55,3.47,3.47,0,0,1,.25-1.8,4.94,4.94,0,0,1,1.23-1.73A5.43,5.43,0,0,1,253.82,255.57Z"/>
        <path class="cls-1" d="M223.77,286.16a5,5,0,0,1-1,2.65,5.6,5.6,0,0,1-2.33,1.75,5.25,5.25,0,0,1-2.9.38,4.45,4.45,0,0,1-2.32-1.13l1,2.33-1.36.56-4.38-10.6,1.36-.56,1,2.35a4.58,4.58,0,0,1,.86-2.46,5.17,5.17,0,0,1,2.32-1.79,5.52,5.52,0,0,1,2.87-.39,5.06,5.06,0,0,1,2.6,1.18,7.16,7.16,0,0,1,2.37,5.73Zm-8.34,2.71a4.05,4.05,0,0,0,2,.91,4.23,4.23,0,0,0,2.21-.3,4.41,4.41,0,0,0,1.81-1.34,3.94,3.94,0,0,0,.8-2.05,5.17,5.17,0,0,0-.43-2.49,5.26,5.26,0,0,0-1.46-2.07,3.94,3.94,0,0,0-2-.91,4.31,4.31,0,0,0-2.24.32,4.24,4.24,0,0,0-1.77,1.35,4.15,4.15,0,0,0-.81,2.08,5.13,5.13,0,0,0,.41,2.47A5,5,0,0,0,215.43,288.87Z"/>
        <path class="cls-1" d="M194.7,297.77a4.83,4.83,0,0,1-2.29,1.06l-.3-1.51.39-.08a3.21,3.21,0,0,0,2.73-4.35L194,286.61l1.44-.29,2.24,11.24-1.44.29-.4-2A3.55,3.55,0,0,1,194.7,297.77Z"/>
        <path class="cls-1" d="M175.78,297.82a5,5,0,0,1-2,2.07,5.68,5.68,0,0,1-2.87.75,5.6,5.6,0,0,1-3.5-1,4.68,4.68,0,0,1-1.79-2.84h1.57a3.22,3.22,0,0,0,1.28,1.93,4,4,0,0,0,2.43.69,4.15,4.15,0,0,0,2.08-.53,3.81,3.81,0,0,0,1.45-1.57,5.54,5.54,0,0,0,.52-2.56,5.66,5.66,0,0,0-.55-2.56,3.67,3.67,0,0,0-1.47-1.57,4.24,4.24,0,0,0-2.08-.51,4.08,4.08,0,0,0-2.42.72,3.21,3.21,0,0,0-1.26,2h-1.58a4.82,4.82,0,0,1,1.77-2.85,5.54,5.54,0,0,1,3.48-1.09,5.7,5.7,0,0,1,2.88.71,5,5,0,0,1,2,2,7.14,7.14,0,0,1,0,6.23Z"/>
        <path class="cls-1" d="M140.93,296.79a3.91,3.91,0,0,1-1.27-2,5.71,5.71,0,0,1,0-2.8l1.34-6.59,1.42.29-1.31,6.42a4,4,0,0,0,.35,3,3.36,3.36,0,0,0,2.3,1.47,3.47,3.47,0,0,0,2.8-.5,4.35,4.35,0,0,0,1.59-2.83l1.24-6.14,1.44.3-3.09,15.23-1.44-.29,1.2-5.91a3.77,3.77,0,0,1-1.89,1.24,5.32,5.32,0,0,1-4.64-.92Z"/>
        <path class="cls-1" d="M121,293.45a1.1,1.1,0,0,1-.58,1.43,1.09,1.09,0,0,1-1.4-.57,1,1,0,0,1,0-.83,1.07,1.07,0,0,1,1.4-.61A1,1,0,0,1,121,293.45Zm-.45-2.86L124.89,280l1.37.55-4.32,10.63Z"/>
        <path class="cls-1" d="M106.66,272.18l-8.6,6.46-1.32-.83,10-7.28,1.41.88L106,283.57l-1.34-.83Z"/>
        <path class="cls-1" d="M89.77,258.26a5.16,5.16,0,0,1,0,2.89,6.28,6.28,0,0,1-1.63,2.76,6.21,6.21,0,0,1-2.71,1.72,5.24,5.24,0,0,1-2.91.05A5.84,5.84,0,0,1,80,264.17a5.92,5.92,0,0,1-1.6-2.55,5.23,5.23,0,0,1,0-2.91,6.83,6.83,0,0,1,4.33-4.47,5.26,5.26,0,0,1,2.94-.05,6,6,0,0,1,2.61,1.53A5.69,5.69,0,0,1,89.77,258.26Zm-4.34-2.71a4,4,0,0,0-2.21,0A5,5,0,0,0,81,257a5.09,5.09,0,0,0-1.35,2.24,3.91,3.91,0,0,0,0,2.2,4.46,4.46,0,0,0,1.16,1.83,4.51,4.51,0,0,0,1.86,1.09,3.84,3.84,0,0,0,2.2-.05,5.24,5.24,0,0,0,2.18-1.43,5.17,5.17,0,0,0,1.36-2.24,3.76,3.76,0,0,0,0-2.18,4.25,4.25,0,0,0-1.15-1.82A4.31,4.31,0,0,0,85.43,255.55Z"/>
        <path class="cls-1" d="M73.46,240.13a3.31,3.31,0,0,1-1.27,2.55l-.85-1.25a2.18,2.18,0,0,0,.78-1.63,3.67,3.67,0,0,0-.73-2.14,2.88,2.88,0,0,0-1.53-1.23,1.76,1.76,0,0,0-1.55.23,1.3,1.3,0,0,0-.58.86,2.52,2.52,0,0,0,0,1.12c.1.4.26.92.49,1.56a16,16,0,0,1,.62,2.1,3.54,3.54,0,0,1-.07,1.68,2.63,2.63,0,0,1-1.15,1.46,2.66,2.66,0,0,1-1.57.46,3.38,3.38,0,0,1-1.74-.55,5.26,5.26,0,0,1-1.53-1.49,4.56,4.56,0,0,1-.9-3,3.37,3.37,0,0,1,1.44-2.46l.82,1.22a2.22,2.22,0,0,0-.9,1.56,2.92,2.92,0,0,0,.61,2,3,3,0,0,0,1.45,1.2,1.61,1.61,0,0,0,1.47-.16,1.57,1.57,0,0,0,.68-1,3,3,0,0,0,0-1.22c-.1-.43-.26-1-.48-1.66a17.23,17.23,0,0,1-.58-2,3.47,3.47,0,0,1,.06-1.57,2.49,2.49,0,0,1,1-1.36,2.74,2.74,0,0,1,1.64-.51,3.38,3.38,0,0,1,1.74.52A4.85,4.85,0,0,1,72.4,237,5.37,5.37,0,0,1,73.46,240.13Z"/>
      </g>
      <polygon class="cls-2" points="94.64 133.43 132.69 133.73 132.69 97.05 94.64 133.43"/>
      <path class="cls-2" d="M232.14,175.4v60.65H210V175.4c0-13.93-5.74-24.38-22.75-24.38-14.13,0-32.37,10.45-32.58,35.86v49.17H132.56V133.6h22.12v18c7.59-11.47,19.88-19.46,34.84-19.46C223.94,132.17,232.14,154.71,232.14,175.4Z"/>
    </g>
  </g>
</svg>
