<svg xmlns="http://www.w3.org/2000/svg" width="28.5cm" height="9.02cm" viewBox="0 0 807.89 255.67">
  <defs>
    <style>
      .cls-1 {
        fill: #242120;
      }

      .cls-2 {
        fill: #fff;
      }
    </style>
  </defs>
  <g id="Capa_2" data-name="Capa 2">
    <rect class="cls-1" x="-7.52" y="-9.62" width="824.15" height="274.72"/>
    <g>
      <g>
        <g>
          <path class="cls-2" d="M133.81,92.2v42.41H118.33V92.2c0-9.74-4-17-15.9-17-9.89,0-22.64,7.31-22.78,25.07v34.39H64.17V63H79.65V75.58C85,67.55,93.54,62,104,62,128.08,62,133.81,77.73,133.81,92.2Z"/>
          <polygon class="cls-2" points="37.51 62.92 64.27 63.05 64.27 37.41 37.51 62.92"/>
        </g>
        <g>
          <g>
            <path class="cls-2" d="M440.7,86.18H425.51c.29-6.59-3.15-11-10.17-11-8.31,0-18.48,7.45-18.48,25.36v34.1H381.38V63h15.48V75.15c4.15-8,11.17-13.61,20.06-13.61C435.26,61.54,441.56,73.57,440.7,86.18Z"/>
            <path class="cls-2" d="M482.25,74.15c-14.47,0-23.5,9.6-23.5,25.36s10.89,23.78,22.5,23.78c13,0,17.77-7.59,20.63-16.05l14,5.59c-4.58,14.76-16.76,23.5-34.67,23.5C461.33,136.33,443,124,443,99.51c0-24.65,16.91-38.12,39.26-38.12,17.05,0,28.66,7.45,33.1,20.06l-13.18,7.31C498.87,77.73,491.85,74.15,482.25,74.15Z"/>
            <path class="cls-2" d="M593.58,92.2v42.41H578.1V92.2c0-9.74-4-17-15.9-17-9.89,0-22.64,7.31-22.78,25.07v34.39H523.94V34.31h15.48V75.58c5.3-8,13.89-13.61,24.35-13.61C587.85,62,593.58,77.73,593.58,92.2Z"/>
            <path class="cls-2" d="M606.9,49.79V34.31h15.47V49.79Zm0,84.82V63h15.47v71.64Z"/>
            <path class="cls-2" d="M646.16,63l22.21,55.31L690.58,63h15.47l-28.8,71.64H659.48L630.68,63Z"/>
            <path class="cls-2" d="M770.38,89.76v44.85H754.91V125c-4.45,6.59-11.9,11.32-22.79,11.32-17.48,0-27.08-8.74-27.08-21.78,0-10.89,7.6-19.49,30-21.49,13.61-1.29,19.49-5,19.49-10.32a8.59,8.59,0,0,0-.29-2c-1.15-4.59-4.73-7.31-12-7.31-12.75,0-14.61,11.17-13.9,12.89l-17-.14a13.33,13.33,0,0,1-.43-3.29c0-11.61,13.62-21.35,29.66-21.35C767.8,61.54,770.38,78.16,770.38,89.76Zm-15.47,12.18V96.35c-4.88,3.59-11.75,5.59-19.2,6.45-8.46,1-14.48,4.87-14.48,11,0,4.73,2.73,11.47,12.9,11.47C745,125.3,754.91,118.56,754.91,101.94Z"/>
          </g>
          <path class="cls-2" d="M176.07,135.61c-24.07,0-29.8-15.76-29.8-30.23V63h15.47v42.41c0,9.74,4,17.05,15.91,17.05,9.88,0,21.35-4.3,21.35-25.36V63h15.47v71.64H199v-9.17C194,132.17,185.81,135.61,176.07,135.61Z"/>
          <path class="cls-2" d="M299.72,98.5c0,21.21-14.19,37.54-35.68,37.54-9.6,0-16.19-3.72-20.78-9.17v7.74H227.79l-.14-100.3h15.61V70.42c4.59-5.44,11.18-9.17,20.78-9.17C285.53,61.25,299.72,77.44,299.72,98.5Zm-15.62,0c0-13.32-8-23.64-20.06-23.64-12.46,0-22.35,8.89-22.35,23.64,0,15,9.89,23.79,22.35,23.79C276.08,122.29,284.1,112.11,284.1,98.5Z"/>
          <path class="cls-2" d="M369.64,89.76v44.85H354.16V125c-4.44,6.59-11.89,11.32-22.78,11.32-17.48,0-27.08-8.74-27.08-21.78,0-10.89,7.6-19.49,29.95-21.49,13.61-1.29,19.48-5,19.48-10.32a8.61,8.61,0,0,0-.28-2c-1.15-4.59-4.73-7.31-12-7.31-12.75,0-14.61,11.17-13.9,12.89l-17.05-.14a13.33,13.33,0,0,1-.43-3.29c0-11.61,13.62-21.35,29.66-21.35C367.06,61.54,369.64,78.16,369.64,89.76Zm-15.48,12.18V96.35c-4.87,3.59-11.74,5.59-19.2,6.45-8.45,1-14.47,4.87-14.47,11,0,4.73,2.73,11.47,12.9,11.47C344.28,125.3,354.16,118.56,354.16,101.94Z"/>
        </g>
      </g>
      <g>
        <path class="cls-2" d="M205.89,215.32h6.93v1.19h-8.44V201.94h1.51Z"/>
        <path class="cls-2" d="M224.55,201.94v14.57H223V201.94Z"/>
        <path class="cls-2" d="M246.78,210.24a3.46,3.46,0,0,1,.89,2.37,3.59,3.59,0,0,1-.57,2,4,4,0,0,1-1.68,1.4,6.3,6.3,0,0,1-2.65.51h-5.25V201.94h5.1a5.28,5.28,0,0,1,3.5,1,3.31,3.31,0,0,1,1.2,2.65,3.21,3.21,0,0,1-.75,2.2,4.11,4.11,0,0,1-2,1.18A3.63,3.63,0,0,1,246.78,210.24ZM239,208.38h3.53a3.59,3.59,0,0,0,2.38-.7,2.34,2.34,0,0,0,.83-1.92,2.31,2.31,0,0,0-.83-1.9,3.75,3.75,0,0,0-2.44-.69H239Zm6.19,6.15a2.5,2.5,0,0,0,.92-2.06,2.57,2.57,0,0,0-1-2.1,4,4,0,0,0-2.59-.78H239v5.69h3.62A4,4,0,0,0,245.23,214.53Z"/>
        <path class="cls-2" d="M261.51,203.13v5.44h5.75v1.21h-5.75v5.52h6.4v1.21H260V201.92h7.92v1.21Z"/>
        <path class="cls-2" d="M288.49,216.51l-3.75-6.09h-2.8v6.09h-1.52V201.94H285a5.63,5.63,0,0,1,3.85,1.17,3.92,3.92,0,0,1,1.31,3.06,4,4,0,0,1-.94,2.7,4.58,4.58,0,0,1-2.79,1.45l3.91,6.19Zm-6.55-7.27H285a3.79,3.79,0,0,0,2.68-.84,2.89,2.89,0,0,0,.9-2.23,2.83,2.83,0,0,0-.87-2.22,4,4,0,0,0-2.73-.78h-3Z"/>
        <path class="cls-2" d="M311.46,213.05h-6.89l-1.33,3.46h-1.6l5.53-14.38h1.71l5.51,14.38h-1.6Zm-.45-1.21L308,204l-3,7.88Z"/>
        <path class="cls-2" d="M350.68,201.94v1.21h-4.21v13.36H345V203.15h-4.23v-1.21Z"/>
        <path class="cls-2" d="M364.06,201.94v9.17a4.26,4.26,0,0,0,1.08,3.21,4.65,4.65,0,0,0,5.85,0,4.35,4.35,0,0,0,1.06-3.22v-9.17h1.51v9.15a5.36,5.36,0,0,1-1.53,4.17,6.39,6.39,0,0,1-8,0,5.36,5.36,0,0,1-1.52-4.17v-9.15Z"/>
        <path class="cls-2" d="M388.43,216.16a4.35,4.35,0,0,1-1.79-1.4,3.63,3.63,0,0,1-.69-2h1.6a2.9,2.9,0,0,0,1,1.86,3.59,3.59,0,0,0,2.54.81,3.66,3.66,0,0,0,2.44-.77,2.39,2.39,0,0,0,.9-1.92,2.22,2.22,0,0,0-.5-1.51,3,3,0,0,0-1.24-.86,18.55,18.55,0,0,0-2-.61,19.12,19.12,0,0,1-2.4-.77,3.76,3.76,0,0,1-1.52-1.17,3.36,3.36,0,0,1-.63-2.15,3.43,3.43,0,0,1,.61-2,4,4,0,0,1,1.71-1.39,6.16,6.16,0,0,1,2.54-.5,5.42,5.42,0,0,1,3.39,1,3.69,3.69,0,0,1,1.49,2.56h-1.65a2.61,2.61,0,0,0-1-1.6,4.16,4.16,0,0,0-4.62,0,2.27,2.27,0,0,0-.91,1.91,2.17,2.17,0,0,0,.5,1.48,3.06,3.06,0,0,0,1.25.85,16.7,16.7,0,0,0,2,.63,17.69,17.69,0,0,1,2.39.78,3.87,3.87,0,0,1,1.54,1.18,3.32,3.32,0,0,1,.63,2.12,3.59,3.59,0,0,1-.57,1.94,4,4,0,0,1-1.67,1.48,5.68,5.68,0,0,1-2.64.56A6.58,6.58,0,0,1,388.43,216.16Z"/>
        <path class="cls-2" d="M432.65,213.05h-6.9l-1.32,3.46h-1.61l5.54-14.38h1.71l5.51,14.38H434Zm-.45-1.21-3-7.88-3,7.88Z"/>
        <path class="cls-2" d="M455.6,216.51l-3.75-6.09h-2.8v6.09h-1.52V201.94h4.56a5.58,5.58,0,0,1,3.84,1.17,3.89,3.89,0,0,1,1.32,3.06,4,4,0,0,1-.95,2.7,4.58,4.58,0,0,1-2.78,1.45l3.9,6.19Zm-6.55-7.27h3.06a3.83,3.83,0,0,0,2.68-.84,2.89,2.89,0,0,0,.9-2.23,2.83,2.83,0,0,0-.87-2.22,4,4,0,0,0-2.73-.78h-3Z"/>
        <path class="cls-2" d="M470.07,205.37a7,7,0,0,1,2.66-2.65,7.63,7.63,0,0,1,3.78-.95,7.93,7.93,0,0,1,4.35,1.16,6.66,6.66,0,0,1,2.63,3.26h-1.78a5,5,0,0,0-2-2.31,5.92,5.92,0,0,0-3.22-.84,6,6,0,0,0-3,.76,5.22,5.22,0,0,0-2.09,2.15,6.75,6.75,0,0,0-.76,3.27,6.67,6.67,0,0,0,.76,3.25,5.32,5.32,0,0,0,2.09,2.14,6.58,6.58,0,0,0,6.23-.07,5,5,0,0,0,2-2.28h1.78a6.59,6.59,0,0,1-2.64,3.23,8,8,0,0,1-4.34,1.14,7.63,7.63,0,0,1-3.78-.94,7,7,0,0,1-2.66-2.64,8,8,0,0,1,0-7.68Z"/>
        <path class="cls-2" d="M507.29,201.94v14.57h-1.52v-6.82h-8.22v6.82H496V201.94h1.52v6.54h8.22v-6.54Z"/>
        <path class="cls-2" d="M521.8,201.94v14.57h-1.52V201.94Z"/>
        <path class="cls-2" d="M546.79,201.94,541,216.51H539.3l-5.74-14.57h1.64l5,13,5-13Z"/>
        <path class="cls-2" d="M561.58,215.71a7.08,7.08,0,0,1-2.7-2.65,8,8,0,0,1,0-7.69,7,7,0,0,1,2.7-2.65,7.76,7.76,0,0,1,3.82-.95,7.86,7.86,0,0,1,3.84.95,6.92,6.92,0,0,1,2.69,2.65,8.11,8.11,0,0,1,0,7.69,7,7,0,0,1-2.69,2.65,7.86,7.86,0,0,1-3.84.94A7.75,7.75,0,0,1,561.58,215.71Zm6.85-1.08a5.44,5.44,0,0,0,2.13-2.15,7.2,7.2,0,0,0,0-6.52,5.41,5.41,0,0,0-2.13-2.14,6.08,6.08,0,0,0-3-.75,6.14,6.14,0,0,0-3,.75,5.48,5.48,0,0,0-2.13,2.14,7.2,7.2,0,0,0,0,6.52,5.5,5.5,0,0,0,2.13,2.15,6.14,6.14,0,0,0,3,.75A6.08,6.08,0,0,0,568.43,214.63Z"/>
        <path class="cls-2" d="M587.16,216.16a4.35,4.35,0,0,1-1.79-1.4,3.63,3.63,0,0,1-.69-2h1.61a2.84,2.84,0,0,0,1,1.86,3.6,3.6,0,0,0,2.54.81,3.64,3.64,0,0,0,2.44-.77,2.39,2.39,0,0,0,.9-1.92,2.22,2.22,0,0,0-.5-1.51,3,3,0,0,0-1.24-.86,19,19,0,0,0-2-.61A18.81,18.81,0,0,1,587,209a3.76,3.76,0,0,1-1.52-1.17,3.36,3.36,0,0,1-.63-2.15,3.43,3.43,0,0,1,.61-2,4,4,0,0,1,1.71-1.39,6.16,6.16,0,0,1,2.54-.5,5.42,5.42,0,0,1,3.39,1,3.69,3.69,0,0,1,1.49,2.56H592.9a2.61,2.61,0,0,0-1-1.6,4.16,4.16,0,0,0-4.62,0,2.27,2.27,0,0,0-.91,1.91,2.17,2.17,0,0,0,.5,1.48,3.06,3.06,0,0,0,1.25.85,17.3,17.3,0,0,0,2,.63,17.69,17.69,0,0,1,2.39.78,3.87,3.87,0,0,1,1.54,1.18,3.32,3.32,0,0,1,.63,2.12,3.67,3.67,0,0,1-.56,1.94,4.1,4.1,0,0,1-1.67,1.48,5.73,5.73,0,0,1-2.65.56A6.58,6.58,0,0,1,587.16,216.16Z"/>
      </g>
    </g>
  </g>
</svg>
